<?xml version="1.0" encoding="iso-8859-1"?>
<!-- Generator: Adobe Illustrator 15.0.0, SVG Export Plug-In . SVG Version: 6.00 Build 0)  -->
<!DOCTYPE svg PUBLIC "-//W3C//DTD SVG 1.1//EN" "http://www.w3.org/Graphics/SVG/1.1/DTD/svg11.dtd">
<svg version="1.1" xmlns="http://www.w3.org/2000/svg" xmlns:xlink="http://www.w3.org/1999/xlink" x="0px" y="0px" width="228px"
	 height="152px" viewBox="0 0 228 152" style="enable-background:new 0 0 228 152;" xml:space="preserve">
<g id="payment_x5F_amex">
	<g id="payment_x5F_amex_x5F_small">
		<path style="fill:#3473DB;" d="M228,136.8c0,8.396-6.806,15.2-15.2,15.2H15.2C6.806,152,0,145.195,0,136.8V15.2
			C0,6.805,6.806,0,15.2,0h197.6c8.395,0,15.2,6.805,15.2,15.2V136.8z"/>
		<g>
			<g>
				<path style="fill:#FFFFFF;" d="M49.008,78.197c-0.407,1.021,0.159,1.857,1.259,1.857h5.153c1.1,0,1.67-0.837,1.268-1.86
					l-3.082-7.822c-0.403-1.023-1.066-1.025-1.475-0.003L49.008,78.197z"/>
			</g>
			<g>
				<path style="fill:#FFFFFF;" d="M205.081,94.457c-0.615-0.912-1.619-2.406-2.231-3.32l-9.527-14.219
					c-0.612-0.914-0.613-2.41-0.002-3.325l8.935-13.368c0.611-0.915,1.608-2.413,2.217-3.329l4.099-6.175
					c0.608-0.917,0.206-1.667-0.895-1.667h-7.284c-1.1,0-2.899,0-4,0h-8.71c-1.1,0-2.739,0-3.643,0s-2.04,0.661-2.527,1.47
					c-0.486,0.808-1.361,2.233-1.943,3.166l-0.113,0.18c-0.582,0.933-1.522,0.925-2.09-0.017l-0.08-0.134
					c-0.567-0.942-1.428-2.378-1.912-3.189c-0.485-0.812-1.63-1.476-2.545-1.476s-2.563,0-3.664,0h-3.817c-1.1,0-2.899,0-4,0h-1.185
					c-1.1,0-2.184,0-2.407,0c-0.225,0-1.308,0-2.408,0h-6.413c-1.101,0-2.9,0-4,0h-16.723c-1.1,0-2.38,0-2.844,0
					c-0.465,0-1.744,0-2.845,0h-0.312c-1.1,0-2.38,0-2.844,0c-0.465,0-1.744,0-2.845,0h-6.264c-1.1,0-2.754,0-3.675,0
					c-0.922,0-2.07,0.681-2.554,1.512s-1.348,2.28-1.92,3.22l-2.548,4.182c-0.572,0.939-1.507,0.938-2.077-0.002l-2.556-4.219
					c-0.57-0.941-1.432-2.381-1.915-3.201s-1.633-1.491-2.554-1.491c-0.922,0-2.575,0-3.676,0h-7.952c-1.1,0-2.899,0-4,0h-2.288
					c-1.1,0-2,0.9-2,2v2.344c0,1.1,0,2.9,0,4v9.685c0,1.1-0.344,1.168-0.764,0.151l-5.224-12.642
					c-0.42-1.017-1.08-2.679-1.466-3.693c-0.387-1.015-1.598-1.845-2.691-1.845s-2.889,0-3.989,0h-6.902c-1.1,0-2.896,0-3.991,0
					s-2.339,0.83-2.764,1.845l-0.003,0.007c-0.424,1.015-1.121,2.674-1.549,3.688L25.44,91.948
					c-0.428,1.014-1.129,2.671-1.559,3.684l-1.946,4.583c-0.43,1.012,0.119,1.84,1.219,1.84h5.038c1.101,0,2.9,0,4,0h7.836
					c1.101,0,2.9,0,4,0h0.074c1.101,0,2.339-0.812,2.752-1.807s1.068-2.568,1.457-3.5s1.606-1.693,2.706-1.693h3.652
					c1.1,0,2.317,0.763,2.706,1.693c0.389,0.932,1.045,2.507,1.458,3.5c0.413,0.994,1.651,1.807,2.752,1.807h0.073
					c1.101,0,2.9,0,4,0h3.174c1.101,0,2.9,0,4,0h0.953c1.101,0,2.235,0,2.523,0s1.424,0,2.523,0h4.004c1.1,0,2.691,0,3.536,0
					c0.846,0,2.438,0,3.537,0h1.635c1.101,0,2-0.899,2-2v-1.843c0-1.101,0-2.718,0-3.597c0-0.877,0.336-1.137,0.746-0.578
					c0.411,0.561,1.479,1.018,2.372,1.018s1.678,0,1.742,0c0.063,0,0.847,0,1.74,0c0.893,0,1.798-0.479,2.012-1.062
					c0.214-0.586,0.388-0.325,0.388,0.578c0,0.902,0,2.541,0,3.642v1.843c0,1.101,0.9,2,2,2h2.413c1.101,0,2.9,0,4,0h5.564
					c1.101,0,2.38,0,2.845,0c0.464,0,1.744,0,2.844,0h0.312c1.101,0,2.38,0,2.845,0c0.464,0,1.744,0,2.844,0h16.088
					c1.1,0,2.899,0,4,0h7.28c1.101,0,2.014,0,2.03,0c0.016,0,0.93,0,2.029,0h2c1.101,0,2.9,0,4,0h2.65c1.101,0,2.741,0,3.646,0
					s2.044-0.607,2.53-1.35s1.371-2.105,1.966-3.031l0.629-0.979c0.595-0.926,1.566-0.926,2.16,0.001l0.602,0.939
					c0.594,0.926,1.477,2.3,1.962,3.052s1.627,1.367,2.536,1.367s2.553,0,3.652,0h9.002c1.1,0,2.9,0,4,0h7.229
					c1.1,0,1.497-0.746,0.882-1.658L205.081,94.457z M65.659,96.055c-1.1,0-2.346-0.83-2.769-1.846l-1.378-3.308
					c-0.423-1.016-1.669-1.847-2.77-1.847h-11.8c-1.1,0-2.346,0.832-2.769,1.847l-1.378,3.308c-0.422,1.016-1.668,1.846-2.769,1.846
					h-7.836c-1.1,0-1.649-0.828-1.222-1.842l15.76-37.315c0.429-1.013,1.679-1.842,2.778-1.842h6.902
					c1.101,0,2.352,0.829,2.78,1.841l15.814,37.317c0.43,1.013-0.119,1.841-1.22,1.841H65.659z M120.545,94.055c0,1.101-0.899,2-2,2
					h-8c-1.1,0-2-0.899-2-2V74.774c0-1.1-0.472-1.234-1.048-0.297L99.57,87.352c-0.577,0.938-1.102,1.703-1.165,1.703
					c-0.064,0-0.614-0.75-1.222-1.667L88.649,74.5c-0.607-0.917-1.104-0.768-1.104,0.333v19.223c0,1.101-0.899,2-2,2h-7
					c-1.1,0-2-0.899-2-2v-37c0-1.1,0.9-2,2-2h8.24c1.101,0,2.473,0.766,3.05,1.703l7.638,12.395c0.577,0.937,1.521,0.937,2.099,0
					l7.639-12.395c0.577-0.937,1.949-1.703,3.049-1.703h8.286c1.101,0,2,0.9,2,2V94.055z M187.973,96.055
					c-1.1,0-2.48-0.76-3.068-1.69l-5.676-8.979c-0.588-0.93-1.552-0.931-2.143-0.003l-5.723,8.986
					c-0.591,0.928-1.974,1.687-3.074,1.687h-8.65c-1.1,0-2.014,0-2.029,0c-0.017,0-0.93,0-2.03,0h-29.034c-1.1,0-2-0.899-2-2v-37
					c0-1.1,0.9-2,2-2h29c1.101,0,2,0.9,2,2v6c0,1.1-0.899,2-2,2h-18c-1.1,0-2,0.9-2,2v2c0,1.1,0.9,2,2,2h16c1.101,0,2,0.9,2,2v5
					c0,1.101-0.899,2-2,2h-16c-1.1,0-2,0.9-2,2v3c0,1.101,0.9,2,2,2h18c1.101,0,2,0.9,2,2v5.068c0,1.101,0.502,1.253,1.114,0.34
					l11.751-17.519c0.613-0.914,0.618-2.412,0.012-3.33l-11.157-16.891c-0.606-0.918-0.202-1.669,0.897-1.669h9.002
					c1.101,0,2.477,0.763,3.06,1.696l5.053,8.093c0.582,0.933,1.544,0.938,2.137,0.011l5.191-8.116
					c0.593-0.927,1.978-1.685,3.077-1.685h8.71c1.101,0,1.499,0.747,0.886,1.661L186.097,73.37c-0.613,0.914-0.616,2.41-0.007,3.326
					l11.777,17.695c0.609,0.915,0.207,1.664-0.893,1.664H187.973z M161.545,73.334c0-1.1,0.518-1.264,1.15-0.363l0.619,0.881
					c0.632,0.9,0.656,2.389,0.055,3.31l-0.729,1.113c-0.603,0.92-1.096,0.773-1.096-0.327V73.334z"/>
			</g>
		</g>
		<g>
			<path style="fill:#FFFFFF;" d="M43.957,49.486l-0.237,0.237c0.102-0.077,0.205-0.147,0.314-0.212L43.957,49.486z"/>
			<path style="opacity:0.1;" d="M200.975,102c-1.1,0-2.9,0-4,0h-9.002c-1.1,0-2.743,0-3.652,0s-2.051-0.588-2.536-1.34
				s-1.369-2.112-1.962-3.039l-0.602-0.932c-0.594-0.926-1.565-0.924-2.16,0.002l-0.629,0.98c-0.595,0.926-1.479,2.264-1.966,3.006
				s-1.625,1.322-2.53,1.322s-2.547,0-3.646,0h-2.65c-1.1,0-2.9,0-4,0h-2c-1.1,0-2.014,0-2.029,0c-0.017,0-0.93,0-2.03,0h-7.28
				c-1.101,0-2.9,0-4,0h-16.088c-1.1,0-2.38,0-2.844,0c-0.465,0-1.744,0-2.845,0h-0.312c-1.1,0-2.38,0-2.844,0
				c-0.465,0-1.744,0-2.845,0h-5.564c-1.1,0-2.899,0-4,0h-2.413c-1.1,0-2.545-0.845-2.545-1.945v-1.843c0-1.101,0-2.739,0-3.642
				c0-0.903,0.098-1.191-0.115-0.606c-0.214,0.585-0.847,1.036-1.739,1.036c-0.894,0-1.677,0-1.74,0c-0.064,0-0.849,0-1.742,0
				s-2.233-0.43-2.645-0.99C93.608,93.45,93,93.738,93,94.615c0,0.879,0,2.496,0,3.597v1.843c0,1.101-0.354,1.945-1.455,1.945H89.91
				c-1.1,0-2.691,0-3.537,0c-0.845,0-2.437,0-3.536,0h-4.004c-1.1,0-2.235,0-2.523,0s-1.423,0-2.523,0h-0.953c-1.1,0-2.899,0-4,0
				h-3.174c-1.1,0-2.899,0-4,0h-0.073c-1.101,0-2.339-0.785-2.752-1.779c-0.413-0.993-1.069-2.582-1.458-3.514S55.77,95,54.67,95
				h-3.652c-1.1,0-2.317,0.789-2.706,1.721s-1.044,2.492-1.457,3.486S45.203,102,44.103,102h-0.074c-1.1,0-2.899,0-4,0h-7.836
				c-1.1,0-2.899,0-4,0h-5.038c-1.1,0-1.648-0.801-1.219-1.813l1.946-4.568c0.43-1.013,1.131-2.663,1.559-3.677l15.762-37.35
				c0.428-1.014,1.125-2.671,1.549-3.686l0.003-0.006c0.076-0.182-0.086-0.355,0.037-0.521L0,92.896v43.959
				C0,145.25,7.351,152,15.745,152H158.67l50.091-50.09c-0.16,0.054-0.341,0.09-0.558,0.09H200.975z"/>
			<path style="fill:#FFFFFF;" d="M209.085,100.396l-4.004-5.939c-0.615-0.912-1.619-2.406-2.231-3.32l-9.527-14.219
				c-0.612-0.914-0.613-2.41-0.002-3.325l8.935-13.368c0.611-0.915,1.608-2.413,2.217-3.329l4.099-6.203
				c0.608-0.917,0.206-1.694-0.895-1.694h-7.284c-1.1,0-2.899,0-4,0h-8.71c-1.1,0-2.739,0-3.643,0s-2.04,0.689-2.527,1.497
				c-0.486,0.808-1.361,2.247-1.943,3.18l-0.113,0.188c-0.582,0.933-1.522,0.929-2.09-0.014l-0.08-0.132
				c-0.567-0.943-1.428-2.405-1.912-3.216c-0.485-0.812-1.63-1.502-2.545-1.502s-2.564,0-3.664,0h-3.817c-1.1,0-2.899,0-4,0h-1.185
				c-1.1,0-2.184,0-2.407,0c-0.225,0-1.308,0-2.408,0h-6.413c-1.101,0-2.9,0-4,0h-16.723c-1.1,0-2.38,0-2.844,0
				c-0.465,0-1.744,0-2.845,0h-0.312c-1.1,0-2.38,0-2.844,0c-0.465,0-1.744,0-2.845,0h-6.264c-1.1,0-2.754,0-3.675,0
				c-0.922,0-2.07,0.708-2.554,1.54s-1.348,2.294-1.92,3.234l-2.548,4.188c-0.572,0.939-1.507,0.941-2.077,0.001l-2.556-4.218
				c-0.57-0.94-1.432-2.408-1.915-3.228C92.531,49.697,91.382,49,90.461,49c-0.922,0-2.576,0-3.676,0h-7.952c-1.1,0-2.899,0-4,0
				h-2.288C71.445,49,70,49.955,70,51.055v2.344c0,1.1,0,2.9,0,4v0.444l6,1.886v-2.674c0-1.1,1.445-2.055,2.545-2.055h8.24
				c1.1,0,2.473,0.793,3.049,1.73l5.464,8.881l5.401,1.705l6.511-10.589c0.577-0.937,1.949-1.727,3.049-1.727h8.286
				c1.101,0,1.455,0.955,1.455,2.055v16.505l4,1.257V57.055c0-1.1,1.445-2.055,2.545-2.055h29c1.101,0,1.455,0.955,1.455,2.055v6
				c0,1.1-0.354,1.945-1.455,1.945h-18c-1.1,0-2.545,0.955-2.545,2.055v2c0,1.1,1.445,1.945,2.545,1.945h16
				c1.101,0,1.455,0.955,1.455,2.055v5c0,1.101-0.354,1.945-1.455,1.945h-12.338l22.395,7.066l6.809-10.136
				c0.613-0.914,0.618-2.405,0.012-3.323l-11.157-16.915c-0.606-0.918-0.202-1.693,0.897-1.693h9.002c1.1,0,2.477,0.791,3.06,1.724
				l5.053,8.106c0.582,0.933,1.544,0.945,2.137,0.019l5.191-8.14c0.593-0.927,1.978-1.709,3.077-1.709h8.71
				c1.101,0,1.499,0.775,0.886,1.688l-11.181,16.668c-0.613,0.913-0.616,2.417-0.007,3.333l11.777,17.671
				c0.609,0.916,0.207,1.641-0.893,1.641h-4.867l17.167,5.424l-0.514,0.527C209.412,101.733,209.579,101.129,209.085,100.396z
				 M161,73.334c0-1.1,0.79-1.264,1.423-0.363l0.755,0.881c0.633,0.9,0.726,2.389,0.123,3.31l-0.967,1.113
				c-0.603,0.92-1.334,0.773-1.334-0.327V73.334z"/>
			<path style="fill:#FFFFFF;" d="M64.558,54.594c-0.42-1.017-1.08-2.707-1.466-3.721C62.705,49.858,61.494,49,60.4,49
				s-2.889,0-3.989,0h-6.902c-1.1,0-2.896,0-3.991,0c-0.495,0-1.018,0.203-1.483,0.482l21.173,6.669L64.558,54.594z"/>
			<path style="fill:#FFFFFF;" d="M43.064,50.378l0.655-0.656C43.468,49.914,43.245,50.134,43.064,50.378z"/>
			<path style="fill:#FFFFFF;" d="M177.086,85.382l-3.158,4.959l10.524,3.308l-5.224-8.263
				C178.641,84.455,177.677,84.454,177.086,85.382z"/>
		</g>
	</g>
</g>
<g id="Layer_1">
</g>
</svg>
