<?xml version="1.0" encoding="iso-8859-1"?>
<!-- Generator: Adobe Illustrator 15.0.0, SVG Export Plug-In . SVG Version: 6.00 Build 0)  -->
<!DOCTYPE svg PUBLIC "-//W3C//DTD SVG 1.1//EN" "http://www.w3.org/Graphics/SVG/1.1/DTD/svg11.dtd">
<svg version="1.1" xmlns="http://www.w3.org/2000/svg" xmlns:xlink="http://www.w3.org/1999/xlink" x="0px" y="0px" width="228px"
	 height="152px" viewBox="0 0 228 152" style="enable-background:new 0 0 228 152;" xml:space="preserve">
<g id="payment_x5F_discover">
	<g id="payment_x5F_discover_x5F_2_1_">
		<path style="fill:#282828;" d="M228,136.8c0,8.395-6.805,15.2-15.2,15.2H15.2C6.805,152,0,145.194,0,136.8V15.2
			C0,6.805,6.805,0,15.2,0h197.6c8.396,0,15.2,6.805,15.2,15.2V136.8z"/>
		<path style="fill:#E67E22;" d="M213.756,152c8.395,0,14.244-6.414,14.244-14.809V92.314c0,0-57.859,41.686-165.579,59.686H213.756
			z"/>
		<path style="fill:#FFFFFF;" d="M25.333,45.365H16.22v31.83h9.066c4.821,0,8.301-1.137,11.357-3.674
			c3.631-3.005,5.778-7.534,5.778-12.218C42.421,51.909,35.403,45.365,25.333,45.365z M32.587,69.277
			c-1.951,1.762-4.485,2.53-8.497,2.53h-1.666V50.759h1.666c4.012,0,6.446,0.717,8.497,2.574c2.147,1.912,3.438,4.875,3.438,7.924
			C36.025,64.312,34.734,67.366,32.587,69.277z"/>
		<rect x="45.278" y="45.365" style="fill:#FFFFFF;" width="6.209" height="31.83"/>
		<path style="fill:#FFFFFF;" d="M66.668,57.58c-3.726-1.379-4.819-2.288-4.819-4.008c0-2.005,1.949-3.528,4.625-3.528
			c1.86,0,3.389,0.765,5.007,2.578l3.249-4.254c-2.67-2.335-5.864-3.529-9.354-3.529c-5.632,0-9.927,3.911-9.927,9.121
			c0,4.385,2,6.63,7.831,8.729c2.431,0.857,3.667,1.429,4.292,1.813c1.241,0.81,1.861,1.957,1.861,3.293
			c0,2.579-2.05,4.49-4.82,4.49c-2.961,0-5.347-1.48-6.776-4.245l-4.011,3.862c2.86,4.199,6.295,6.06,11.02,6.06
			c6.452,0,10.979-4.289,10.979-10.451C75.824,62.452,73.731,60.163,66.668,57.58z"/>
		<path style="fill:#FFFFFF;" d="M77.782,61.303c0,9.356,7.347,16.611,16.801,16.611c2.673,0,4.962-0.525,7.785-1.855V68.75
			c-2.482,2.484-4.681,3.486-7.496,3.486c-6.253,0-10.691-4.533-10.691-10.979c0-6.111,4.579-10.932,10.402-10.932
			c2.961,0,5.203,1.057,7.785,3.582v-7.305c-2.726-1.382-4.967-1.955-7.638-1.955C85.323,44.646,77.782,52.048,77.782,61.303z"/>
		<polygon style="fill:#FFFFFF;" points="151.596,66.746 143.107,45.365 136.324,45.365 149.833,78.013 153.174,78.013 
			166.924,45.365 160.194,45.365 		"/>
		<polygon style="fill:#FFFFFF;" points="169.732,77.195 187.34,77.195 187.34,71.807 175.936,71.807 175.936,63.215 186.92,63.215 
			186.92,57.824 175.936,57.824 175.936,50.759 187.34,50.759 187.34,45.365 169.732,45.365 		"/>
		<path style="fill:#FFFFFF;" d="M212.425,54.762c0-5.959-4.104-9.397-11.265-9.397h-9.207v31.831h6.202V64.408h0.81l8.594,12.787
			h7.636l-10.021-13.41C209.85,62.834,212.425,59.636,212.425,54.762z M199.969,60.019h-1.813v-9.64h1.912
			c3.866,0,5.968,1.62,5.968,4.718C206.035,58.296,203.934,60.019,199.969,60.019z"/>
		<g>
			<circle style="fill:#F39C12;" cx="121.328" cy="61.391" r="16.933"/>
			<circle style="fill:#E67E22;" cx="121.328" cy="61.391" r="16.933"/>
		</g>
	</g>
</g>
<g id="Layer_1">
</g>
</svg>
