<?xml version="1.0" encoding="iso-8859-1"?>
<!-- Generator: Adobe Illustrator 15.0.0, SVG Export Plug-In . SVG Version: 6.00 Build 0)  -->
<!DOCTYPE svg PUBLIC "-//W3C//DTD SVG 1.1//EN" "http://www.w3.org/Graphics/SVG/1.1/DTD/svg11.dtd">
<svg version="1.1" xmlns="http://www.w3.org/2000/svg" xmlns:xlink="http://www.w3.org/1999/xlink" x="0px" y="0px" width="228px"
	 height="152px" viewBox="0 0 228 152" style="enable-background:new 0 0 228 152;" xml:space="preserve">
<g id="payment_x5F_visa">
	<g id="payment_x5F_visa_1_">
		<g>
			<path style="fill:#0054A4;" d="M228,136.8c0,8.395-6.806,15.2-15.2,15.2H15.2C6.806,152,0,145.194,0,136.8V15.2
				C0,6.805,6.806,0,15.2,0h197.6c8.395,0,15.2,6.805,15.2,15.2V136.8z"/>
		</g>
		<g>
			<polyline style="fill:#FFFFFF;" points="91.598,100.117 99.531,50.996 112.216,50.996 104.281,100.117 91.598,100.117 			"/>
			<path style="fill:#FFFFFF;" d="M150.29,52.199c-2.51-0.986-6.452-2.061-11.364-2.061c-12.541,0-21.369,6.667-21.441,16.211
				c-0.079,7.062,6.3,11,11.108,13.346c4.942,2.405,6.602,3.944,6.583,6.096c-0.033,3.289-3.944,4.797-7.592,4.797
				c-5.078,0-7.775-0.741-11.947-2.575l-1.632-0.782l-1.773,10.995c2.956,1.369,8.44,2.555,14.13,2.618
				c13.328,0,21.988-6.586,22.09-16.778c0.046-5.6-3.334-9.843-10.654-13.348c-4.433-2.276-7.152-3.786-7.121-6.092
				c0.002-2.042,2.297-4.228,7.266-4.228c4.148-0.066,7.152,0.891,9.492,1.888l1.139,0.562L150.29,52.199"/>
			<path style="fill:#FFFFFF;" d="M182.826,51.043h-9.803c-3.04,0-5.313,0.871-6.646,4.074l-18.837,45.016h13.323
				c0,0,2.172-6.055,2.666-7.384c1.453,0,14.398,0.025,16.246,0.025c0.381,1.714,1.543,7.358,1.543,7.358h11.773L182.826,51.043
				 M167.18,82.702c1.052-2.825,5.053-13.731,5.053-13.731c-0.074,0.129,1.045-2.845,1.685-4.688l0.856,4.237
				c0,0,2.436,11.725,2.937,14.183C175.735,82.702,169.655,82.702,167.18,82.702z"/>
			<path style="fill:#FFFFFF;" d="M80.958,51.036L68.542,84.524l-1.329-6.808c-2.314-7.844-9.514-16.345-17.568-20.605L61,100.074
				l13.425-0.009l19.973-49.029H80.958"/>
			<path style="fill:#F39C12;" d="M57.019,51.002H36.563l-0.168,1.018c15.917,4.07,26.447,13.89,30.817,25.697l-4.445-22.57
				C62.001,52.034,59.773,51.111,57.019,51.002"/>
		</g>
	</g>
</g>
<g id="Layer_1">
</g>
</svg>
