<?xml version="1.0" encoding="iso-8859-1"?>
<!-- Generator: Adobe Illustrator 15.0.0, SVG Export Plug-In . SVG Version: 6.00 Build 0)  -->
<!DOCTYPE svg PUBLIC "-//W3C//DTD SVG 1.1//EN" "http://www.w3.org/Graphics/SVG/1.1/DTD/svg11.dtd">
<svg version="1.1" xmlns="http://www.w3.org/2000/svg" xmlns:xlink="http://www.w3.org/1999/xlink" x="0px" y="0px" width="228px"
	 height="152px" viewBox="0 0 228 152" style="enable-background:new 0 0 228 152;" xml:space="preserve">
<g id="payment_x5F_paypal">
	<g id="payment_x5F_paypal_1_">
		<g>
			<path style="fill:#ECF0F1;" d="M228,136.8c0,8.395-6.805,15.2-15.2,15.2H15.2C6.805,152,0,145.194,0,136.8V15.2
				C0,6.806,6.805,0,15.2,0h197.6c8.396,0,15.2,6.806,15.2,15.2V136.8z"/>
		</g>
		<g>
			<g>
				<path style="fill:#336699;" d="M108.391,88h0.167c0.019,0,0.036,0.165,0.092-0.064l3.63-15.417
					c0.541-2.486,3.185-4.451,5.752-4.431l3.979,0.056c3.946,0.018,7.039,0.625,9.354,1.742c-0.579-1.349-1.498-2.435-2.77-3.268
					c-2.371-1.575-5.889-2.356-10.514-2.356l-3.959,0.028c-2.615-0.024-5.223,2.076-5.779,4.605l-3.643,15.09
					C104.126,86.533,105.776,88,108.391,88z"/>
				<path style="fill:#336699;" d="M156.711,64.958c-1.262-2.457-3.09-4.49-5.333-6.174c0.509,0.707,0.975,1.446,1.378,2.232
					c1.572,2.91,2.327,6.555,2.307,10.909c0.021,9.913-4.1,17.428-12.336,23.476c-8.25,6.06-19.728,8.599-34.527,8.599h-3.459
					c-2.623,0-5.209,2.582-5.767,5.095l-4.169,18.124c-0.588,2.588-3.18,4.781-5.797,4.781h-11.91c-0.2,1,1.392,4.053,3.723,4.04
					l12.147,0.025c2.576,0.022,5.201-2.036,5.81-4.554l4.106-18.447c0.576-2.519,3.195-5.064,5.813-5.064h3.453
					c14.817,0,26.305-2.56,34.532-8.619c8.207-6.09,12.338-13.837,12.338-23.772C158.992,71.27,158.254,67.857,156.711,64.958z"/>
			</g>
			<path style="fill:#1C3664;" d="M148.995,57.069c-1.504-2.935-3.759-5.317-6.636-7.116c-2.984-1.841-6.456-3.111-10.504-3.876
				c-4.07-0.73-8.826-1.089-14.281-1.138l-25.26,0.019c-2.625,0.03-5.197,2.09-5.803,4.613l-17.033,74.048
				c-0.586,2.533,1.054,4.627,3.668,4.627h12.101c2.617,0,5.209-2.039,5.797-4.627l4.169-17.97c0.558-2.513,3.144-4.593,5.767-4.593
				h3.459c14.799-0.014,26.277-3.042,34.526-9.102c8.236-6.047,12.356-14.064,12.337-23.978
				C151.322,63.623,150.568,59.979,148.995,57.069z M122.866,81.263c-3.647,2.667-8.705,4.005-15.269,4.005h-2.967
				c-2.615,0-4.265-2.074-3.689-4.621l3.642-15.696c0.556-2.529,3.164-4.628,5.779-4.603l3.959-0.025
				c4.625,0,8.141,0.792,10.514,2.367c2.338,1.532,3.526,3.951,3.486,7.205C128.391,74.794,126.533,78.587,122.866,81.263z"/>
		</g>
		<path style="fill:#1C3664;" d="M212.744,0H15.144C6.749,0,0,6.811,0,15.205V26h228V15.205C228,6.811,221.139,0,212.744,0z"/>
	</g>
</g>
<g id="Layer_1">
</g>
</svg>
