<?xml version="1.0" encoding="iso-8859-1"?>
<!-- Generator: Adobe Illustrator 15.0.0, SVG Export Plug-In . SVG Version: 6.00 Build 0)  -->
<!DOCTYPE svg PUBLIC "-//W3C//DTD SVG 1.1//EN" "http://www.w3.org/Graphics/SVG/1.1/DTD/svg11.dtd">
<svg version="1.1" xmlns="http://www.w3.org/2000/svg" xmlns:xlink="http://www.w3.org/1999/xlink" x="0px" y="0px" width="228px"
	 height="152px" viewBox="0 0 228 152" style="enable-background:new 0 0 228 152;" xml:space="preserve">
<g id="payment_x5F_maestro">
	<g id="payment_x5F_maestro_1_">
		<path style="fill:#34495E;" d="M228,136.8c0,8.395-6.805,15.2-15.2,15.2H15.2C6.805,152,0,145.194,0,136.8V15.2
			C0,6.806,6.805,0,15.2,0h197.6c8.396,0,15.2,6.806,15.2,15.2V136.8z"/>
		<circle style="fill:#3473DB;" cx="85.163" cy="76.26" r="44.527"/>
		<circle style="fill:#E74C3C;" cx="144.989" cy="76.26" r="44.527"/>
		<path style="fill:#D93E32;" d="M100.462,78.397c0,13.077,5.638,24.837,14.614,32.983c8.977-8.146,14.614-19.906,14.614-32.983
			c0-13.076-5.638-24.836-14.614-32.982C106.1,53.562,100.462,65.321,100.462,78.397z"/>
		<g>
			<path id="path642" style="fill:#FFFFFF;" d="M66.385,93.616h-7.57l4.505-23.622L52.956,93.616h-6.849l-1.261-23.474L40.34,93.616
				h-6.849l5.857-30.725h11.804l0.541,19.031l8.381-19.031h12.256L66.385,93.616"/>
			<path id="path644" style="fill:#FFFFFF;" d="M150.646,93.322c-2.073,0.566-3.695,0.812-5.408,0.812
				c-3.875,0-5.949-1.944-5.949-5.487c0-0.704,0.09-1.452,0.18-2.241l0.451-2.452l0.359-1.982l3.516-19.079h7.48l-1.08,5.736h3.874
				l-1.083,6.081h-3.874l-1.982,10.426c-0.091,0.456-0.091,0.8-0.091,1.035c0,1.294,0.812,1.848,2.613,1.848
				c0.812,0,1.443-0.074,1.982-0.236L150.646,93.322"/>
			<path id="path648" style="fill:#FFFFFF;" d="M172.634,68.838c-0.631-0.247-0.722-0.247-0.81-0.271
				c-0.363-0.087-0.633-0.135-0.633-0.148c-0.27-0.037-0.54-0.062-0.811-0.062c-2.434,0-4.234,1.108-6.578,4.063l0.721-3.792h-6.85
				l-4.597,24.988h7.57c2.703-15.276,3.874-17.959,7.479-17.959c0.271,0,0.541,0.024,0.902,0.062l0.901,0.185L172.634,68.838"/>
			<path id="path650" style="fill:#FFFFFF;" d="M120.726,76.532c0,3.15,1.802,5.329,5.858,6.967
				c3.063,1.243,3.516,1.612,3.516,2.758c0,1.551-1.352,2.252-4.326,2.252c-2.344,0-4.417-0.308-6.85-0.985l-1.08,5.762l0.359,0.06
				l1.352,0.245c0.45,0.089,1.173,0.161,2.072,0.225c1.803,0.135,3.154,0.208,4.146,0.208c8.108,0,11.804-2.634,11.804-8.333
				c0-3.435-1.53-5.441-5.407-6.956c-3.153-1.268-3.516-1.55-3.516-2.721c0-1.343,1.263-2.031,3.695-2.031
				c1.531,0,3.515,0.136,5.497,0.369l1.081-5.784c-1.982-0.271-4.955-0.493-6.758-0.493C123.7,68.074,120.726,71.915,120.726,76.532
				"/>
			<path id="path652" style="fill:#FFFFFF;" d="M85.401,82.489c-0.812-0.086-1.173-0.099-1.713-0.099
				c-4.236,0-6.399,1.279-6.399,3.802c0,1.552,0.992,2.549,2.704,2.549C83.058,88.743,85.221,86.182,85.401,82.489L85.401,82.489z
				 M90.897,93.616h-6.309l0.181-2.584c-1.892,2.053-4.505,3.015-7.931,3.015c-4.055,0-6.849-2.783-6.849-6.82
				c0-6.083,4.867-9.638,13.247-9.638c0.811,0,1.892,0.072,3.063,0.196c0.181-0.826,0.27-1.169,0.27-1.624
				c0-1.65-1.352-2.265-4.867-2.265c-2.163,0-4.597,0.258-6.218,0.688l-1.081,0.271l-0.63,0.161l0.992-5.627
				c3.785-0.959,6.217-1.315,9.011-1.315c6.488,0,9.914,2.535,9.914,7.324c0,1.231-0.09,2.167-0.541,4.947l-1.623,8.877l-0.27,1.587
				l-0.181,1.269l-0.09,0.859L90.897,93.616"/>
			<path id="path654" style="fill:#FFFFFF;" d="M111.625,78.218c0-0.529,0-0.948,0-1.281c0-2.03-1.261-3.213-3.515-3.213
				c-2.433,0-4.146,1.587-4.867,4.481L111.625,78.218L111.625,78.218z M115.592,93.087c-2.525,0.677-5.048,1.01-7.663,1.01
				c-8.47,0-12.887-3.841-12.887-11.201c0-8.567,5.586-14.882,13.156-14.882c6.218,0,10.183,3.532,10.183,9.071
				c0,1.848-0.271,3.645-0.903,6.179h-14.958c-0.09,0.382-0.09,0.555-0.09,0.787c0,2.894,2.252,4.371,6.578,4.371
				c2.704,0,5.138-0.494,7.839-1.589L115.592,93.087"/>
			<path id="path656" style="fill:#FFFFFF;" d="M188.314,79.092c0-2.609-1.08-5.083-4.145-5.083c-3.874,0-6.217,4.554-6.217,8.567
				c0,3.397,1.623,5.676,4.327,5.625c1.622,0,5.136-2.228,5.767-6.119C188.226,81.171,188.314,80.176,188.314,79.092z
				 M196.156,82.294c-1.174,8.308-6.941,11.999-14.689,11.999c-8.562,0-11.986-5.183-11.986-11.521
				c0-8.851,5.857-14.856,14.871-14.856c7.838,0,11.984,4.936,11.984,11.275C196.336,80.74,196.336,80.841,196.156,82.294"/>
		</g>
	</g>
</g>
<g id="Layer_1">
</g>
</svg>
