<?xml version="1.0" encoding="iso-8859-1"?>
<!-- Generator: Adobe Illustrator 15.0.0, SVG Export Plug-In . SVG Version: 6.00 Build 0)  -->
<!DOCTYPE svg PUBLIC "-//W3C//DTD SVG 1.1//EN" "http://www.w3.org/Graphics/SVG/1.1/DTD/svg11.dtd">
<svg version="1.1" xmlns="http://www.w3.org/2000/svg" xmlns:xlink="http://www.w3.org/1999/xlink" x="0px" y="0px"
	 width="228.65px" height="152px" viewBox="0 0 228.65 152" style="enable-background:new 0 0 228.65 152;" xml:space="preserve">
<g id="payment_x5F_amex_x5F_2">
	<g id="payment_x5F_amex">
		<path style="fill:#3473DB;" d="M228,136.8c0,8.396-6.806,15.2-15.2,15.2H15.2C6.806,152,0,145.195,0,136.8V15.2
			C0,6.805,6.806,0,15.2,0h197.6c8.395,0,15.2,6.805,15.2,15.2V136.8z"/>
		<g>
			<g>
				<path style="fill:#FFFFFF;" d="M21.169,54.332l-4.387-10.69l-4.361,10.69 M117.812,50.075c-0.881,0.535-1.923,0.552-3.17,0.552
					h-7.787v-5.956h7.893c1.117,0,2.282,0.05,3.039,0.484c0.832,0.391,1.346,1.222,1.346,2.371
					C119.133,48.698,118.645,49.641,117.812,50.075z M173.359,54.332l-4.436-10.69l-4.411,10.69H173.359z M69.816,65.903h-6.57
					l-0.024-21.001l-9.294,21.001h-5.627l-9.318-21.02v21.02H25.946l-2.463-5.981H10.139L7.65,65.903H0.689l11.477-26.815h9.523
					l10.9,25.388V39.088h10.462l8.388,18.19l7.705-18.19h10.672V65.903L69.816,65.903z M96.005,65.903H74.594V39.088h21.411v5.584
					H81.004v4.833h14.641v5.497H81.004v5.355h15.001V65.903z M126.194,46.31c0,4.275-2.854,6.484-4.517,7.147
					c1.402,0.534,2.601,1.477,3.171,2.258c0.904,1.334,1.061,2.525,1.061,4.92v5.268h-6.465l-0.024-3.382
					c0-1.613,0.155-3.934-1.012-5.224c-0.937-0.943-2.363-1.147-4.671-1.147h-6.881v9.753h-6.409V39.088h14.742
					c3.275,0,5.689,0.086,7.762,1.284C124.979,41.57,126.194,43.318,126.194,46.31z M136.451,65.903h-6.54V39.088h6.54V65.903z
					 M212.322,65.903h-9.082l-12.149-20.126v20.126h-13.053l-2.494-5.981h-13.314l-2.42,5.981h-7.5
					c-3.115,0-7.061-0.689-9.294-2.966c-2.253-2.277-3.425-5.36-3.425-10.237c0-3.977,0.7-7.612,3.455-10.485
					c2.072-2.14,5.317-3.126,9.734-3.126h6.205v5.746h-6.075c-2.339,0-3.66,0.348-4.932,1.588c-1.093,1.129-1.843,3.264-1.843,6.074
					c0,2.873,0.571,4.944,1.763,6.297c0.986,1.062,2.779,1.383,4.467,1.383h2.878l9.034-21.088h9.604l10.852,25.363V39.088h9.759
					l11.267,18.675V39.088h6.565L212.322,65.903L212.322,65.903z M0.614,71.169h10.951l2.47-5.956h5.528l2.462,5.956h21.548v-4.554
					l1.923,4.573h11.186l1.924-4.641v4.622h53.549l-0.025-9.777h1.036c0.726,0.025,0.938,0.092,0.938,1.29v8.487h27.695v-2.276
					c2.234,1.197,5.709,2.276,10.281,2.276h11.651l2.493-5.956h5.528l2.438,5.956h22.453v-5.658l3.4,5.658h17.992V33.771h-17.807
					v4.417l-2.493-4.417h-18.271v4.417l-2.29-4.417h-24.681c-4.131,0-7.763,0.577-10.696,2.184v-2.184h-17.031v2.184
					c-1.866-1.657-4.41-2.184-7.239-2.184H55.305l-4.175,9.66l-4.288-9.66H27.243v4.417l-2.153-4.417H8.376L0.613,51.552
					L0.614,71.169L0.614,71.169z"/>
				<path style="fill:#FFFFFF;" d="M228.65,90.949H216.97c-1.167,0-1.941,0.043-2.594,0.484c-0.677,0.434-0.937,1.078-0.937,1.93
					c0,1.012,0.57,1.699,1.401,1.997c0.676,0.235,1.402,0.304,2.47,0.304l3.474,0.094c3.506,0.086,5.846,0.689,7.272,2.158
					c0.26,0.205,0.416,0.435,0.594,0.664 M228.65,108.631c-1.557,2.277-4.59,3.432-8.697,3.432h-12.378v-5.752h12.328
					c1.223,0,2.078-0.16,2.594-0.664c0.446-0.414,0.758-1.018,0.758-1.749c0-0.781-0.312-1.401-0.783-1.773
					c-0.465-0.409-1.142-0.596-2.258-0.596c-6.019-0.204-13.526,0.187-13.526-8.302c0-3.89,2.47-7.984,9.195-7.984h12.768v-5.337
					h-11.862c-3.579,0-6.18,0.857-8.021,2.19v-2.19h-17.545c-2.806,0-6.1,0.696-7.657,2.19v-2.19h-31.331v2.19
					c-2.493-1.799-6.701-2.19-8.643-2.19h-20.667v2.19c-1.973-1.91-6.359-2.19-9.033-2.19H90.762l-5.293,5.728l-4.957-5.728H45.961
					v37.425h33.9l5.454-5.818l5.137,5.818l20.896,0.019v-8.804h2.055c2.772,0.043,6.042-0.068,8.927-1.316v10.101h17.236v-9.754
					h0.831c1.061,0,1.165,0.044,1.165,1.104v8.648h52.358c3.324,0,6.799-0.851,8.724-2.395v2.395h16.607
					c3.456,0,6.831-0.484,9.398-1.725V108.631L228.65,108.631z M203.084,97.916c1.248,1.292,1.917,2.922,1.917,5.684
					c0,5.77-3.604,8.463-10.069,8.463h-12.483v-5.752h12.434c1.216,0,2.078-0.16,2.618-0.664c0.44-0.414,0.757-1.018,0.757-1.749
					c0-0.781-0.342-1.401-0.782-1.773c-0.49-0.409-1.166-0.596-2.282-0.596c-5.994-0.204-13.5,0.187-13.5-8.302
					c0-3.89,2.444-7.984,9.163-7.984h12.85v5.708h-11.758c-1.165,0-1.923,0.044-2.567,0.484c-0.702,0.435-0.963,1.079-0.963,1.93
					c0,1.013,0.597,1.7,1.402,1.998c0.677,0.235,1.403,0.304,2.495,0.304l3.45,0.094C199.244,95.844,201.633,96.445,203.084,97.916z
					 M145.248,96.26c-0.857,0.509-1.917,0.553-3.164,0.553h-7.786v-6.023h7.892c1.142,0,2.283,0.023,3.059,0.484
					c0.831,0.434,1.328,1.265,1.328,2.412C146.576,94.834,146.079,95.758,145.248,96.26z M149.119,99.598
					c1.427,0.527,2.594,1.471,3.14,2.252c0.905,1.31,1.036,2.531,1.062,4.896v5.317h-6.435v-3.355c0-1.614,0.154-4.004-1.036-5.25
					c-0.937-0.961-2.364-1.191-4.702-1.191h-6.85v9.797h-6.441V85.24h14.798c3.245,0,5.608,0.145,7.712,1.267
					c2.023,1.222,3.295,2.896,3.295,5.956C153.661,96.744,150.807,98.928,149.119,99.598z M157.217,85.24h21.392v5.547H163.6v4.877
					h14.643v5.473H163.6v5.336l15.009,0.024v5.565h-21.392V85.24z M113.973,97.619h-8.283v-6.83h8.357
					c2.313,0,3.92,0.942,3.92,3.288C117.967,96.396,116.436,97.619,113.973,97.619z M99.306,109.623l-9.841-10.926l9.841-10.578
					V109.623z M73.893,106.473H58.134v-5.336h14.071v-5.473H58.134v-4.877h16.069l7.011,7.816L73.893,106.473z M124.849,94.077
					c0,7.45-5.56,8.989-11.162,8.989h-7.997v8.996H93.231l-7.893-8.879l-8.202,8.879H51.749V85.24h25.779l7.886,8.793l8.152-8.793
					h20.48C119.133,85.24,124.849,86.648,124.849,94.077z"/>
			</g>
		</g>
	</g>
</g>
<g id="Layer_1">
</g>
</svg>
