<?xml version="1.0" encoding="iso-8859-1"?>
<!-- Generator: Adobe Illustrator 15.0.0, SVG Export Plug-In . SVG Version: 6.00 Build 0)  -->
<!DOCTYPE svg PUBLIC "-//W3C//DTD SVG 1.1//EN" "http://www.w3.org/Graphics/SVG/1.1/DTD/svg11.dtd">
<svg version="1.1" xmlns="http://www.w3.org/2000/svg" xmlns:xlink="http://www.w3.org/1999/xlink" x="0px" y="0px" width="228px"
	 height="152px" viewBox="0 0 228 152" style="enable-background:new 0 0 228 152;" xml:space="preserve">
<g id="payment_x5F_diner_x5F_club">
	<g id="payment_x5F_diner_x5F_blue">
		<g>
			<path style="fill:#2980B9;" d="M228,136.8c0,8.395-6.806,15.2-15.2,15.2H15.2C6.806,152,0,145.194,0,136.8V15.2
				C0,6.806,6.806,0,15.2,0h197.6c8.395,0,15.2,6.806,15.2,15.2V136.8z"/>
		</g>
		<g>
			<path style="fill:#FFFFFF;" d="M78.275,51.276c-0.834,0.726-1.779,1.484-2.525,2.288c-5.468,5.85-8.803,13.698-8.82,22.34
				c0.018,8.646,3.413,16.495,8.884,22.343c0.744,0.801,1.618,1.555,2.448,2.277c2.874,2.516,5.853,4.55,9.853,5.946
				c-0.106-0.039-0.114-0.088-0.114-0.127V45.458c0-0.04,0.008-0.089,0.114-0.127C84.114,46.727,81.148,48.762,78.275,51.276z"/>
			<path style="fill:#FFFFFF;" d="M111.114,45.328c0.046,0.019-0.114,0.041-0.114,0.06v61.038c0,0.018,0.16,0.04,0.114,0.059
				c12-4.725,21.017-16.619,21.038-30.58C132.131,61.947,123.114,50.044,111.114,45.328z"/>
			<path style="fill:#FFFFFF;" d="M126.075,20H99.517c-31.229,0-56.936,22.819-56.936,56.49c0,30.805,25.706,56.51,56.936,55.51
				h26.559c30.86,1,59.027-24.712,59.027-55.51C185.103,42.812,156.936,20,126.075,20z M132.514,115.78
				c-0.639,0.526-1.289,1.038-1.952,1.534c-8.621,6.448-19.323,10.268-30.919,10.271c-11.594-0.003-22.293-3.822-30.913-10.271
				c-0.663-0.496-1.313-1.008-1.951-1.534c-11.482-9.478-18.801-23.82-18.805-39.876c0.002-7.137,1.448-13.936,4.063-20.119
				c0.327-0.772,0.672-1.536,1.035-2.289c0.725-1.506,1.521-2.972,2.385-4.393c0.432-0.711,0.879-1.409,1.344-2.097
				c1.393-2.062,2.931-4.019,4.598-5.854c0.557-0.611,1.127-1.21,1.711-1.795c1.168-1.169,2.393-2.282,3.669-3.335
				c0.638-0.526,1.288-1.038,1.951-1.534c1.989-1.488,4.089-2.837,6.285-4.03c0.732-0.397,1.475-0.778,2.228-1.142
				c6.776-3.267,14.374-5.098,22.4-5.101c8.027,0.003,15.627,1.834,22.404,5.101c0.753,0.363,1.496,0.744,2.228,1.142
				c2.197,1.193,4.297,2.542,6.287,4.03c0.663,0.496,1.313,1.008,1.952,1.534c1.275,1.053,2.5,2.166,3.669,3.335
				c0.585,0.585,1.155,1.184,1.711,1.795c1.668,1.836,3.206,3.792,4.599,5.854c0.464,0.688,0.912,1.386,1.344,2.097
				c0.863,1.421,1.66,2.887,2.386,4.393c0.362,0.753,0.708,1.517,1.034,2.289c2.615,6.184,4.062,12.982,4.062,20.119
				C151.316,91.96,143.997,106.303,132.514,115.78z"/>
		</g>
	</g>
</g>
<g id="Layer_1">
</g>
</svg>
