<?xml version="1.0" encoding="iso-8859-1"?>
<!-- Generator: Adobe Illustrator 15.0.0, SVG Export Plug-In . SVG Version: 6.00 Build 0)  -->
<!DOCTYPE svg PUBLIC "-//W3C//DTD SVG 1.1//EN" "http://www.w3.org/Graphics/SVG/1.1/DTD/svg11.dtd">
<svg version="1.1" xmlns="http://www.w3.org/2000/svg" xmlns:xlink="http://www.w3.org/1999/xlink" x="0px" y="0px" width="228px"
	 height="152px" viewBox="0 0 228 152" style="enable-background:new 0 0 228 152;" xml:space="preserve">
<g id="payment_x5F_card">
	<g id="payment_x5F_card_1_">
		<path style="fill:#27AE60;" d="M228,136.8c0,8.396-6.805,15.2-15.2,15.2H15.2C6.805,152,0,145.195,0,136.8V15.2
			C0,6.805,6.805,0,15.2,0h197.6c8.396,0,15.2,6.805,15.2,15.2V136.8z"/>
		<rect y="15" style="fill:#3C4244;" width="228" height="28"/>
		<path style="fill:#E2EEF2;" d="M158,77c0,1.104-0.896,2-2,2H13c-1.104,0-2-0.896-2-2V56c0-1.104,0.896-2,2-2h143
			c1.104,0,2,0.896,2,2V77z"/>
		<path style="fill:#E2EEF2;" d="M215,77c0,1.104-0.896,2-2,2h-41c-1.104,0-2-0.896-2-2V56c0-1.104,0.896-2,2-2h41
			c1.104,0,2,0.896,2,2V77z"/>
		<path style="opacity:0.4;fill:#2C3E50;" d="M215,137c0,1.104-0.896,2-2,2H113c-1.104,0-2-0.896-2-2v-7c0-1.104,0.896-2,2-2h100
			c1.104,0,2,0.896,2,2V137z"/>
	</g>
</g>
<g id="Layer_1">
</g>
</svg>
