<?xml version="1.0" encoding="iso-8859-1"?>
<!-- Generator: Adobe Illustrator 15.0.0, SVG Export Plug-In . SVG Version: 6.00 Build 0)  -->
<!DOCTYPE svg PUBLIC "-//W3C//DTD SVG 1.1//EN" "http://www.w3.org/Graphics/SVG/1.1/DTD/svg11.dtd">
<svg version="1.1" xmlns="http://www.w3.org/2000/svg" xmlns:xlink="http://www.w3.org/1999/xlink" x="0px" y="0px" width="228px"
	 height="152px" viewBox="0 0 228 152" style="enable-background:new 0 0 228 152;" xml:space="preserve">
<g id="payment_x5F_paypal_x5F_2">
	<g id="payment_x5F_paypal_x5F_3">
		<g>
			<path style="fill:#ECF0F1;" d="M228,136.8c0,8.395-6.806,15.2-15.2,15.2H15.2C6.806,152,0,145.194,0,136.8V15.2
				C0,6.806,6.806,0,15.2,0h197.6c8.395,0,15.2,6.806,15.2,15.2V136.8z"/>
		</g>
		<g>
			<path id="path2997" style="fill:#336699;" d="M176.913,81.774c-0.701,0.442-1.442,0.82-2.22,1.143
				c-1.044,0.421-2.033,0.642-2.949,0.642c-1.404,0-2.484-0.198-3.215-0.623c-0.731-0.403-1.114-1.104-1.102-2.107
				c0-1.157,0.267-2.056,0.82-2.761c0.557-0.678,1.385-1.224,2.412-1.63c1.021-0.346,2.276-0.632,3.727-0.836
				c1.289-0.162,3.838-0.456,4.164-0.458c0.326-0.003,0.542-0.183,0.396,0.687c-0.064,0.377-0.8,3.398-1.138,4.772
				C177.712,81.014,177.164,81.613,176.913,81.774z M186.916,60.54c-2.146-1.197-5.504-1.804-10.099-1.804
				c-2.272,0-4.556,0.183-6.847,0.539c-1.682,0.257-1.855,0.3-2.899,0.527c-2.149,0.468-2.481,2.62-2.481,2.62l-0.69,2.838
				c-0.392,1.816,0.643,1.741,1.104,1.601c0.938-0.283,1.446-0.564,3.361-0.998c1.83-0.416,3.764-0.727,5.307-0.714
				c2.262,0,3.983,0.248,5.127,0.725c1.145,0.499,1.711,1.35,1.711,2.565c0.004,0.289,0.012,0.562-0.093,0.801
				c-0.095,0.222-0.275,0.437-0.816,0.51c-3.229,0.192-5.547,0.487-8.338,0.894c-2.754,0.389-5.164,1.053-7.179,1.973
				c-2.147,0.953-3.754,2.228-4.861,3.843c-1.078,1.623-1.62,3.588-1.623,5.903c0,2.188,0.786,3.972,2.307,5.356
				c1.54,1.367,3.542,2.044,5.964,2.044c1.514-0.011,2.698-0.12,3.547-0.332c0.841-0.212,1.757-0.513,2.725-0.933
				c0.724-0.302,1.504-0.739,2.328-1.288c0.825-0.55,1.397-0.94,2.13-1.421l0.026,0.046l-0.206,0.909
				c-0.001,0.009-0.014,0.014-0.014,0.022l0.007,0.017c-0.235,1.097,0.423,2.008,1.509,2.115l0.014,0.02h0.096l0.004,0.004
				c0.721,0,3.194,0,4.351-0.004h0.807c0.054,0,0.059-0.017,0.08-0.029c1.108-0.136,2.171-1.039,2.421-2.122l4.129-17.82
				c0.096-0.42,0.17-0.903,0.215-1.461c0.052-0.562,0.112-1.025,0.094-1.36C190.141,63.604,189.057,61.739,186.916,60.54"/>
			<path id="path3009" style="fill:#1C3664;" d="M115.888,59.131c-1.211,0-2.8,0.98-3.552,2.165c0,0-8.102,13.89-8.896,15.277
				c-0.434,0.746-0.871,0.271-0.944-0.006c-0.06-0.337-2.511-15.18-2.511-15.18c-0.275-1.195-1.524-2.222-3.085-2.217l-5.052,0.008
				c-1.218,0-1.978,0.976-1.707,2.154c0,0,3.862,21.889,4.615,27.036c0.375,2.848-0.039,3.352-0.039,3.352l-5.007,8.729
				c-0.732,1.184-0.331,2.153,0.881,2.153l5.854-0.005c1.212,0,2.817-0.965,3.539-2.15l22.521-38.091c0,0,2.154-3.254,0.167-3.227
				C121.318,59.15,115.888,59.131,115.888,59.131"/>
			<path style="fill:#1C3664;" d="M56.999,55.57c-0.703-1.371-1.756-2.484-3.101-3.324c-1.395-0.861-3.017-1.454-4.907-1.812
				c-1.902-0.341-4.124-0.509-6.673-0.531l-11.801,0.009c-1.227,0.014-2.429,0.976-2.712,2.154l-7.958,34.597
				c-0.273,1.184,0.492,2.161,1.714,2.161h5.653c1.223,0,2.435-0.952,2.709-2.161l1.948-8.396c0.26-1.174,1.469-2.146,2.693-2.146
				h1.616c6.914-0.007,12.277-1.422,16.131-4.253c3.849-2.825,5.773-6.571,5.765-11.202C58.086,58.632,57.733,56.93,56.999,55.57z
				 M44.791,66.873c-1.704,1.247-4.066,1.871-7.134,1.871h-1.386c-1.222,0-1.992-0.969-1.724-2.158l1.702-7.334
				c0.259-1.182,1.478-2.162,2.699-2.15l1.85-0.012c2.161,0,3.805,0.37,4.912,1.105c1.093,0.717,1.648,1.847,1.629,3.367
				C47.372,63.852,46.504,65.623,44.791,66.873z"/>
			<path id="path3017" style="fill:#336699;" d="M159.644,55.696c-0.704-1.37-1.769-2.475-3.113-3.334
				c-1.38-0.857-3.019-1.455-4.916-1.804c-1.877-0.329-4.108-0.518-6.65-0.523l-11.828,0.006c-1.218,0.021-2.413,0.978-2.694,2.155
				l-7.952,34.606c-0.29,1.176,0.501,2.156,1.697,2.149l5.675-0.011c1.204,0.011,2.431-0.963,2.715-2.139l1.918-8.398
				c0.27-1.177,1.493-2.163,2.717-2.146h1.613c6.922,0,12.29-1.423,16.133-4.254c3.835-2.845,5.765-6.577,5.765-11.22
				C160.709,58.759,160.364,57.051,159.644,55.696 M147.44,67.016c-1.694,1.231-4.071,1.85-7.131,1.85h-1.407
				c-1.217,0.015-2.003-0.97-1.714-2.149l1.696-7.345c0.253-1.162,1.487-2.15,2.688-2.141l1.858-0.01
				c2.17,0.01,3.792,0.372,4.913,1.094c1.102,0.73,1.636,1.862,1.645,3.371C149.993,63.985,149.143,65.755,147.44,67.016"/>
			<path id="path3021" style="fill:#1C3664;" d="M74.247,81.748c-0.702,0.441-1.442,0.818-2.22,1.142
				c-1.043,0.419-2.038,0.642-2.95,0.642c-1.401,0-2.484-0.2-3.216-0.623c-0.729-0.403-1.114-1.104-1.103-2.108
				c0-1.155,0.271-2.057,0.822-2.76c0.559-0.679,1.383-1.226,2.409-1.631c1.024-0.349,2.283-0.63,3.729-0.834
				c1.289-0.163,3.841-0.455,4.166-0.46c0.323-0.001,0.541-0.183,0.396,0.686c-0.062,0.378-0.8,3.401-1.137,4.773
				C75.041,80.988,74.494,81.588,74.247,81.748z M84.25,60.513c-2.146-1.198-5.504-1.803-10.099-1.803
				c-2.272,0-4.556,0.181-6.848,0.537c-1.685,0.256-1.854,0.3-2.899,0.527c-2.15,0.469-2.481,2.62-2.481,2.62l-0.689,2.84
				c-0.391,1.815,0.645,1.74,1.104,1.6c0.937-0.283,1.448-0.564,3.362-1c1.827-0.413,3.764-0.723,5.305-0.713
				c2.265,0,3.983,0.248,5.127,0.725c1.146,0.499,1.709,1.352,1.709,2.566c0.008,0.289,0.014,0.562-0.088,0.799
				c-0.096,0.225-0.278,0.438-0.819,0.511c-3.226,0.195-5.543,0.488-8.339,0.896c-2.754,0.388-5.163,1.053-7.178,1.972
				c-2.148,0.953-3.753,2.229-4.858,3.844c-1.082,1.622-1.623,3.587-1.624,5.902c0,2.187,0.786,3.972,2.306,5.356
				c1.54,1.367,3.54,2.045,5.963,2.045c1.515-0.011,2.698-0.122,3.55-0.332c0.839-0.214,1.757-0.514,2.721-0.933
				c0.727-0.302,1.505-0.741,2.33-1.289c0.823-0.55,1.397-0.94,2.133-1.42l0.023,0.044l-0.207,0.909
				c-0.002,0.009-0.013,0.015-0.013,0.024l0.009,0.015c-0.236,1.099,0.421,2.01,1.508,2.115l0.013,0.021h0.095l0.004,0.007
				c0.722,0,3.196-0.004,4.35-0.007h0.809c0.054,0,0.062-0.018,0.078-0.029c1.111-0.14,2.171-1.041,2.424-2.121l4.129-17.822
				c0.093-0.418,0.169-0.901,0.211-1.458c0.055-0.565,0.115-1.026,0.099-1.36C87.476,63.576,86.39,61.711,84.25,60.513"/>
			<path id="path3025" style="fill:#336699;" d="M206.409,50.319h-5.059c-0.003,0-0.006,0.001-0.008,0.001l-0.003-0.001
				c-1.158,0-2.333,0.887-2.661,2.016c-0.013,0.046-0.036,0.089-0.046,0.137c0,0-0.121,0.551-0.33,1.502l-6.948,31.496
				c-0.161,0.712-0.269,1.176-0.301,1.297l0.013,0.017c-0.24,1.102,0.422,2.012,1.508,2.113l0.015,0.021h5.251
				c1.15,0,2.317-0.879,2.656-1.993c0.016-0.054,0.041-0.104,0.054-0.158l7.58-34.297l-0.012-0.004
				C208.376,51.293,207.62,50.319,206.409,50.319"/>
		</g>
	</g>
</g>
<g id="Layer_1">
</g>
</svg>
