<?xml version="1.0" encoding="iso-8859-1"?>
<!-- Generator: Adobe Illustrator 15.0.0, SVG Export Plug-In . SVG Version: 6.00 Build 0)  -->
<!DOCTYPE svg PUBLIC "-//W3C//DTD SVG 1.1//EN" "http://www.w3.org/Graphics/SVG/1.1/DTD/svg11.dtd">
<svg version="1.1" xmlns="http://www.w3.org/2000/svg" xmlns:xlink="http://www.w3.org/1999/xlink" x="0px" y="0px" width="228px"
	 height="152px" viewBox="0 0 228 152" style="enable-background:new 0 0 228 152;" xml:space="preserve">
<g id="payment_x5F_squiggly">
	<g id="payment_x5F_googlepay_x5F_1">
		<g>
			<path style="fill:#282828;" d="M228,136.8c0,8.395-6.806,15.2-15.2,15.2H15.2C6.805,152,0,145.194,0,136.8V15.2
				C0,6.806,6.805,0,15.2,0h197.6c8.395,0,15.2,6.806,15.2,15.2V136.8z"/>
		</g>
		<g id="g3025_3_">
			<path id="path34_3_" style="fill:#1476C6;" d="M102.056,70.192c-6.992-9.645-16.729-18.09-27.76-23.998
				c-1.683-0.899-3.57-1.371-5.468-1.371c-4.299,0-8.221,2.346-10.243,6.127c-3.02,5.646-0.888,12.687,4.754,15.712
				c17.024,9.107,28.005,26.48,29.294,46.56l-0.004-0.051c-0.192-2.237,0.17-4.425,1.202-6.507c0.138-0.289,0.302-0.598,0.507-0.935
				c5.31-8.745,8.116-18.811,8.116-29.104C102.455,74.466,102.304,72.322,102.056,70.192"/>
			<path id="path36_3_" style="fill:#47AE33;" d="M169.44,48.347c-2.052-8.982-5.097-17.751-9.057-26.074
				c-2.117-4.447-6.666-7.321-11.598-7.321c-1.905,0-3.761,0.42-5.497,1.247c-6.388,3.04-9.106,10.729-6.07,17.098
				c6.516,13.737,9.735,28.253,9.735,43.329c0,15.075-3.237,29.574-9.628,43.085c-0.097,0.205-1.215,2.599-1.215,5.36
				c-0.01,0.776,0.083,1.936,0.327,2.973c0.829,3.632,3.204,6.928,7.004,8.75c1.735,0.818,3.573,1.234,5.475,1.234
				c4.678,0,9.013-2.59,11.248-6.654c2.561-4.805,5.145-11.114,7.396-19.238c0.713-2.446,1.31-4.744,1.87-7.228
				c2.085-9.171,3.177-18.621,3.177-28.282C172.608,67.079,171.517,57.49,169.44,48.347"/>
			<path id="path38_3_" style="fill:#ED114C;" d="M115.275,34.924c-0.226-0.378-0.487-0.729-0.749-1.076
				c-0.85-1.12-1.869-2.049-3.012-2.8c-1.938-1.27-4.267-2.007-6.628-2.007c-1.958,0-2.963,0.238-4.373,0.803
				c-1.445,0.576-2.98,1.365-4.367,2.829c-1.376,1.452-2.203,2.933-2.781,4.478c-1.161,3.097-1.021,7.168,1.007,10.428
				c4.259,6.847,6.765,14.615,7.684,22.614c0.248,2.13,0.399,4.273,0.399,6.433c0,10.294-2.806,20.359-8.116,29.104
				c-0.186,0.306-0.35,0.622-0.507,0.935c-1.032,2.082-1.405,4.34-1.199,6.535c0.351,3.717,2.376,7.234,5.805,9.314
				c0.883,0.533,1.822,0.936,2.792,1.234c1.149,0.346,2.335,0.542,3.539,0.542c4.309,0,8.218-2.196,10.454-5.878
				c6.725-11.074,10.65-23.605,11.49-36.529c0.112-1.748,0.172-3.499,0.172-5.258C126.885,61.893,122.872,47.473,115.275,34.924"/>
			<path id="path40_3_" style="fill:#FBBF16;" d="M137.322,119.71c6.395-13.511,9.632-28.01,9.632-43.085
				c0-5.183-0.354-8.961-0.623-11.354c-8.4-13.438-20.583-25.449-34.846-34.242c0.012,0.007,0.33,0.222,0.354,0.236
				c0.988,0.711,1.82,1.456,2.688,2.582c0.211,0.277,0.506,0.668,0.749,1.076c7.597,12.549,11.609,26.969,11.609,41.701
				c0,1.757-0.06,3.51-0.172,5.258c6.093,11.592,9.416,24.768,9.416,38.594c0,1.098,0.02,2.865-0.007,4.154
				c0.059-1.443,0.423-2.971,0.943-4.305C137.147,120.116,137.229,119.908,137.322,119.71"/>
		</g>
	</g>
</g>
<g id="Layer_1">
</g>
</svg>
