<?xml version="1.0" encoding="utf-8"?>
<!-- Generator: Adobe Illustrator 15.0.0, SVG Export Plug-In . SVG Version: 6.00 Build 0)  -->
<!DOCTYPE svg PUBLIC "-//W3C//DTD SVG 1.1//EN" "http://www.w3.org/Graphics/SVG/1.1/DTD/svg11.dtd">
<svg version="1.1" id="ubuntu" xmlns="http://www.w3.org/2000/svg" xmlns:xlink="http://www.w3.org/1999/xlink" x="0px" y="0px"
	 width="48px" height="48px" viewBox="0 0 48 48" enable-background="new 0 0 48 48" xml:space="preserve">
<path fill-rule="evenodd" clip-rule="evenodd" fill="#F05827" d="M5,18.823c2.753,0,5,2.247,5,5c0,2.755-2.246,5.001-5,5.001
	c-2.754,0-5-2.246-5-5.001C0,21.07,2.247,18.823,5,18.823L5,18.823z M27.279,4.015c1.232,0,2.439,0.118,3.609,0.341
	C30.87,4.567,30.857,4.782,30.857,5c0,3.839,3.132,6.971,6.971,6.971c1.507,0,2.903-0.482,4.045-1.301
	c2.655,3.039,4.378,6.908,4.721,11.157l-7.893,0.244c-0.659-5.714-5.534-10.175-11.422-10.175c-1.665,0-3.247,0.356-4.677,0.997
	l-3.949-6.843C21.253,4.748,24.182,4.015,27.279,4.015L27.279,4.015z"/>
<path fill-rule="evenodd" clip-rule="evenodd" fill="#F8AE2B" d="M38.096,37.913c2.753,0,4.999,2.247,4.999,5.002
	c0,2.754-2.246,5.001-4.999,5.001c-2.756,0-5.001-2.247-5.001-5.001C33.095,40.16,35.34,37.913,38.096,37.913L38.096,37.913z
	 M16.22,39.293c-3.369-2.355-5.961-5.745-7.304-9.709c1.841-1.259,3.054-3.372,3.054-5.761c0-2.483-1.311-4.671-3.277-5.907
	c1.24-4.193,3.867-7.804,7.345-10.293l4.161,6.72c-2.688,2.108-4.419,5.385-4.419,9.052c0,3.635,1.702,6.886,4.35,8.995
	L16.22,39.293L16.22,39.293z"/>
<path fill-rule="evenodd" clip-rule="evenodd" fill="#E71D29" d="M46.608,24.761c-0.323,4.621-2.28,8.804-5.294,11.976
	c-0.965-0.506-2.059-0.792-3.219-0.792c-3.66,0-6.679,2.847-6.949,6.439c-1.252,0.254-2.546,0.39-3.867,0.39
	c-3.036,0-5.911-0.705-8.472-1.958l3.933-6.859c1.394,0.604,2.928,0.938,4.54,0.938c5.914,0,10.81-4.506,11.433-10.261
	L46.608,24.761L46.608,24.761z M37.828,0c2.753,0,4.999,2.247,4.999,5c0,2.754-2.246,5-4.999,5c-2.754,0-5-2.247-5-5
	C32.828,2.247,35.074,0,37.828,0L37.828,0z"/>
</svg>
